<svg width="19" height="18" viewBox="0 0 19 18" fill="none" xmlns="http://www.w3.org/2000/svg">
<path fill-rule="evenodd" clip-rule="evenodd" d="M8.89777 5.63557C8.89777 3.61782 10.533 1.9823 12.5497 1.9823C13.7969 1.9823 14.7827 2.60693 15.416 3.49713L15.3377 3.30274C16.0556 3.162 16.7303 2.89945 17.3393 2.53811C17.1038 3.27432 16.6044 3.8928 15.9534 4.28256C16.5915 4.20609 17.1985 4.03693 17.7635 3.78656L17.7622 3.78859C17.3406 4.41992 16.8061 4.97411 16.1903 5.41936L16.1617 5.34851C16.1953 5.56512 16.2124 5.78357 16.2124 6.00097C16.2124 10.3815 12.8758 15.4695 6.74321 15.4695C4.86444 15.4695 3.11474 14.9191 1.6418 13.9741C1.40938 13.8249 1.34186 13.5157 1.49098 13.2832C1.49702 13.2738 1.50333 13.2647 1.50989 13.2558C1.58792 13.0805 1.77316 12.9685 1.97368 12.9921C3.15779 13.1316 4.34502 12.9692 5.37455 12.4704C4.34688 12.0859 3.54213 11.2452 3.20589 10.1962C3.15744 10.0451 3.1922 9.87959 3.29736 9.76071C3.3226 9.73219 3.35099 9.70736 3.38173 9.6865C2.58598 9.02567 2.07941 8.02891 2.07941 6.91372V6.87313C2.07941 6.71367 2.1638 6.56612 2.30123 6.48527C2.38531 6.4358 2.48156 6.41582 2.57553 6.42549C2.27626 5.89977 2.10513 5.2913 2.10513 4.64351C2.10513 4.07949 2.11012 3.3971 2.4902 2.78443C2.57459 2.64841 2.7197 2.57304 2.86873 2.57161C3.04856 2.53009 3.24459 2.59013 3.36911 2.74283C4.71782 4.39673 6.67565 5.53052 8.9015 5.80169C8.89903 5.74664 8.89777 5.69126 8.89777 5.63557ZM6.74321 14.4695C5.65467 14.4695 4.61532 14.2632 3.66006 13.8881C4.80853 13.7509 5.91783 13.3373 6.85684 12.6014C7.00677 12.4839 7.06647 12.2847 7.00592 12.1041C6.94536 11.9236 6.77766 11.8006 6.58721 11.7973C5.6566 11.7809 4.83963 11.2928 4.3664 10.5618C4.64445 10.5513 4.91525 10.5095 5.17558 10.4391C5.37716 10.3846 5.51476 10.1986 5.50787 9.9899C5.50099 9.78119 5.35142 9.60464 5.14669 9.56354C4.12692 9.35882 3.31511 8.57964 3.06184 7.57865C3.34293 7.65962 3.63807 7.70742 3.94246 7.71738C4.14327 7.72395 4.32411 7.59661 4.38559 7.40533C4.44708 7.21405 4.37431 7.00519 4.20728 6.89352C3.48202 6.40866 3.00513 5.58082 3.00513 4.64351C3.00513 4.35691 3.01051 4.10807 3.04221 3.88592C4.66547 5.60942 6.92791 6.72502 9.45383 6.8522C9.61019 6.86007 9.76122 6.79425 9.86189 6.67434C9.96257 6.55444 10.0013 6.3943 9.96645 6.24165C9.9217 6.04542 9.89777 5.84316 9.89777 5.63557C9.89777 4.16983 11.0856 2.9823 12.5497 2.9823C14.1017 2.9823 15.2124 4.41635 15.2124 6.00097C15.2124 9.95152 12.2087 14.4695 6.74321 14.4695Z" fill="white"/>
</svg>
